<?xml version="1.0" encoding="utf-8"?>
<svg viewBox="0 0 500 500" xmlns="http://www.w3.org/2000/svg">
  <title>black-star</title>
  <path d="M 261.556 25.302 L 323.731 170.697 L 481.509 184.819 C 491.21 185.681 496.341 196.728 490.744 204.698 C 490.167 205.519 489.498 206.267 488.745 206.929 L 369.338 311.07 L 404.617 465.325 C 406.818 474.815 397.917 483.128 388.595 480.289 C 387.448 479.941 386.356 479.431 385.355 478.772 L 249.887 397.849 L 114.025 479.089 C 105.658 484.081 95.023 478.148 94.88 468.406 C 94.865 467.399 94.972 466.389 95.197 465.404 L 130.479 311.149 L 11.186 206.929 C 3.858 200.505 6.234 188.561 15.459 185.424 C 16.518 185.063 17.623 184.845 18.741 184.778 L 175.924 170.697 L 238.219 25.302 C 241.992 16.318 254.077 14.794 259.966 22.553 C 260.61 23.399 261.145 24.321 261.556 25.302 Z" style="fill: rgb(87, 87, 87);"/>
</svg>